<svg height="512pt" viewBox="0 0 512 512" width="512pt" xmlns="http://www.w3.org/2000/svg"><path d="m506.234375 215.480469-77-36c-1.324219-.621094-2.769531-.941407-4.234375-.941407h-60.523438v-17.242187c0-19.089844-15.527343-34.617187-34.617187-34.617187-9.625 0-18.339844 3.949218-24.621094 10.308593-6.277343-6.359375-14.996093-10.308593-24.617187-10.308593-9.625 0-18.339844 3.949218-24.621094 10.308593-6.28125-6.359375-14.996094-10.308593-24.617188-10.308593-9.625 0-18.339843 3.949218-24.621093 10.308593-6.28125-6.359375-14.996094-10.308593-24.617188-10.308593-19.089843 0-34.621093 15.527343-34.621093 34.617187v17.242187h-125.753907c-12.003906 0-21.769531 9.765626-21.769531 21.769532v48.460937c0 12.003907 9.765625 21.769531 21.769531 21.769531h77.601563v58.882813c0 .730469.011718 1.460937.035156 2.183594.742188 22.773437 13.851562 44.007812 34.214844 55.425781l23.878906 13.390625v101.578125c0 5.523438 4.480469 10 10 10 5.523438 0 10-4.476562 10-10v-107.441406c0-3.617188-1.953125-6.953125-5.109375-8.722656l-28.988281-16.25c-14.292969-8.015626-23.492188-22.816407-24.007813-38.640626-.015625-.507812-.023437-1.015624-.023437-1.523437v-58.882813h28.152344v1.15625c0 5.523438 4.480468 10 10 10 5.523437 0 10-4.476562 10-10v-110.398437c0-8.0625 6.558593-14.617187 14.621093-14.617187 8.058594 0 14.617188 6.558593 14.617188 14.617187v110.398437c0 5.523438 4.476562 10 10 10 5.523437 0 10-4.476562 10-10v-110.398437c0-8.0625 6.558593-14.617187 14.621093-14.617187 8.058594 0 14.617188 6.554687 14.617188 14.617187v110.398437c0 5.523438 4.476562 10 10 10s10-4.476562 10-10v-110.398437c0-8.0625 6.558594-14.617187 14.617188-14.617187 8.0625 0 14.621093 6.558593 14.621093 14.617187v110.398437c0 5.523438 4.480469 10 10 10 5.523438 0 10-4.476562 10-10v-110.398437c0-8.0625 6.558594-14.617187 14.621094-14.617187 8.058594 0 14.617187 6.558593 14.617187 14.617187v151.234375c0 28.0625-11.574218 55.339844-31.757812 74.835938-1.949219 1.886718-3.054688 4.480468-3.054688 7.191406v67.441406c0 5.523438 4.480469 10 10 10 5.523438 0 10-4.476562 10-10v-63.304688c22.175782-22.992187 34.8125-54.148437 34.8125-86.164062v-41.992188h60.523438c1.464844 0 2.910156-.320312 4.234375-.941406l77-36c3.519531-1.644531 5.765625-5.175781 5.765625-9.058594 0-3.882812-2.246094-7.414062-5.765625-9.058593zm-486.234375 33.289062v-48.460937c0-.976563.792969-1.769532 1.769531-1.769532h32.230469v52h-32.230469c-.976562 0-1.769531-.792968-1.769531-1.769531zm89.367188 1.769531h-35.367188v-52h73.523438v52zm255.109374-52h50.523438v52h-50.523438zm70.523438 46.285157v-40.570313l43.390625 20.285156zm0 0"/><path d="m255.832031 84.339844c5.519531 0 10-4.480469 10-10v-64.339844c0-5.523438-4.480469-10-10-10-5.523437 0-10 4.476562-10 10v64.339844c0 5.519531 4.476563 10 10 10zm0 0"/><path d="m178.359375 98.621094c1.953125 1.953125 4.511719 2.929687 7.070313 2.929687 2.558593 0 5.117187-.976562 7.070312-2.929687 3.90625-3.902344 3.90625-10.234375 0-14.140625l-25.628906-25.632813c-3.902344-3.902344-10.234375-3.902344-14.144532 0-3.902343 3.90625-3.902343 10.238282 0 14.144532zm0 0"/><path d="m326.570312 101.550781c2.558594 0 5.117188-.976562 7.070313-2.929687l25.628906-25.628906c3.90625-3.90625 3.90625-10.238282 0-14.144532-3.90625-3.902344-10.234375-3.902344-14.140625 0l-25.632812 25.632813c-3.902344 3.90625-3.902344 10.238281 0 14.140625 1.953125 1.953125 4.515625 2.929687 7.074218 2.929687zm0 0"/><path d="m319.671875 492c-2.640625 0-5.210937 1.070312-7.070313 2.929688-1.871093 1.859374-2.929687 4.441406-2.929687 7.070312s1.058594 5.210938 2.929687 7.070312c1.859376 1.859376 4.429688 2.929688 7.070313 2.929688 2.628906 0 5.207031-1.070312 7.066406-2.929688 1.859375-1.859374 2.933594-4.441406 2.933594-7.070312s-1.070313-5.210938-2.933594-7.070312c-1.859375-1.859376-4.4375-2.929688-7.066406-2.929688zm0 0"/></svg>