<?xml version="1.0" encoding="iso-8859-1"?>
<!-- Generator: Adobe Illustrator 19.0.0, SVG Export Plug-In . SVG Version: 6.00 Build 0)  -->
<svg version="1.1" id="Capa_1" xmlns="http://www.w3.org/2000/svg" xmlns:xlink="http://www.w3.org/1999/xlink" x="0px" y="0px"
	 viewBox="0 0 485.656 485.656" style="enable-background:new 0 0 485.656 485.656;" xml:space="preserve">
<g>
	<g>
		<g>
			<path d="M181.656,424h-80c-4.418,0-8-3.582-8-8v-48h40v-16h-48c-4.418,0-8,3.582-8,8v24h-24c-2.122,0-4.156,0.844-5.656,2.344
				l-48,48l11.312,11.312L56.968,400h20.688v16c0,13.255,10.745,24,24,24h80c13.255,0,24-10.745,24-24h-16
				C189.656,420.418,186.074,424,181.656,424z"/>
			<path d="M56.968,256h44.688c4.418,0,8,3.582,8,8v56h-8c-4.418,0-8-3.582-8-8v-32h-16v16c-0.026,22.08-17.92,39.974-40,40v16
				c18.401-0.01,35.621-9.067,46.056-24.224c4.513,5.203,11.056,8.202,17.944,8.224h16c4.418,0,8-3.582,8-8v-64
				c0-13.255-10.745-24-24-24h-48c-2.122,0-4.156,0.844-5.656,2.344l-48,48l11.312,11.312L56.968,256z"/>
			<path d="M205.656,256h-32c-13.197-0.058-23.943,10.593-24.002,23.79c-0.026,5.995,2.201,11.781,6.242,16.21
				c-8.32,9.044-8.32,22.956,0,32c-8.32,9.044-8.32,22.956,0,32c-8.894,9.75-8.2,24.864,1.55,33.758
				c4.429,4.04,10.215,6.268,16.21,6.242h32c13.255,0,24-10.745,24-24v-96C229.656,266.745,218.911,256,205.656,256z M213.656,376
				c0,4.418-3.582,8-8,8h-32c-4.418,0-8-3.582-8-8s3.582-8,8-8h40V376z M213.656,352h-40c-4.418,0-8-3.582-8-8s3.582-8,8-8h40V352z
				 M213.656,320h-40c-4.418,0-8-3.582-8-8s3.582-8,8-8h40V320z M213.656,288h-40c-4.418,0-8-3.582-8-8s3.582-8,8-8h32
				c4.418,0,8,3.582,8,8V288z"/>
			<path d="M253.824,252.048c-9.352-9.382-9.352-24.562,0-33.944c3.122-3.127,3.117-8.192-0.009-11.314
				c-0.141-0.141-0.287-0.276-0.439-0.406c-6.592-5.664-12-10.848-17.024-16.064l23.624-23.624c5.208,5,10.4,10.4,16.064,17.024
				c1.453,1.693,3.547,2.702,5.776,2.784c2.209,0.009,4.339-0.826,5.952-2.336c9.496-9.064,24.44-9.064,33.936,0l11.312-11.32
				c-13.313-13.318-34.112-15.546-49.944-5.352c-16.842-17.93-35.658-33.898-56.088-47.6l-6.256-4.6
				c2.282-3.184,1.923-7.552-0.848-10.32l-22.632-22.632c-3.124-3.123-8.188-3.123-11.312,0l-12.28,12.28V64c0-4.418-3.582-8-8-8
				h-48c-4.418,0-8,3.582-8,8v32c-0.001,3.919,2.837,7.261,6.704,7.896l-1.168,7.648c-4.766,24.148-6.779,48.758-6,73.36
				C90.802,188.91,77.679,205.178,77.656,224h16c0-13.255,10.745-24,24-24c4.418,0.012,8.01-3.559,8.023-7.977
				c0.001-0.208-0.007-0.415-0.023-0.623c-0.656-8.672-0.8-16.176-0.68-23.4h33.408c0.152,7.2,0,14.728-0.68,23.4
				c-0.331,4.406,2.972,8.246,7.377,8.578c0.191,0.014,0.383,0.022,0.575,0.023c13.255,0,24,10.745,24,24h-56v16h64
				c4.418,0,8-3.582,8-8v-8c-0.023-18.822-13.146-35.09-31.536-39.096c0.632-12.029,0.335-24.089-0.888-36.072l1.392,1.392
				c2.807,2.688,7.115,3.039,10.32,0.84l4.552,6.192c13.715,20.461,29.705,39.301,47.664,56.16
				c-10.165,15.838-7.942,36.615,5.344,49.944l11.32,11.312l11.312-11.312L253.824,252.048z M157.656,88c-4.418,0-8,3.582-8,8
				c0,0.396,0.029,0.792,0.088,1.184l2.56,16.8c0.096,0.608,0.176,1.128,0.264,1.728L152,116.288c-3.123,3.124-3.123,8.188,0,11.312
				l2.768,2.768c1.144,7.856,2.088,14.912,2.68,21.632h-31.584c1.024-11.064,2.792-22.744,5.144-38.016l2.56-16.8
				c0.654-4.37-2.358-8.442-6.728-9.096c-0.392-0.059-0.788-0.088-1.184-0.088V72h32V88z M225.656,178.4
				c-7.104-8.56-14.12-18.088-23.272-30.568l-10.016-13.68c-1.389-1.865-3.521-3.033-5.84-3.2c-2.325-0.198-4.616,0.653-6.248,2.32
				l-10.448-10.448l-0.224-1.504l21.984-21.992l11.32,11.32c-3.12,3.128-3.114,8.193,0.014,11.314
				c0.278,0.277,0.575,0.533,0.89,0.766L217.52,132.8c12.456,9.136,21.96,16.136,30.504,23.2L225.656,178.4z"/>
			<path d="M366.96,164.848c-2.122,0-4.156,0.844-5.656,2.344l-33.952,33.952c-9.369,9.372-9.369,24.564,0,33.936l45.256,45.256
				c3.124,3.123,8.188,3.123,11.312,0l11.336-11.32c4.519-4.488,7.052-10.599,7.032-16.968c0-0.512-0.112-1-0.144-1.504
				c3.328,0.611,6.704,0.924,10.088,0.936c14.86,0.038,29.118-5.867,39.6-16.4l-11.32-11.312c-15.621,15.621-40.947,15.621-56.568,0
				l-5.656-5.656l-5.656-5.656l-11.312,11.312l5.656,5.656l5.656,5.656l11.296,11.32c3.123,3.124,3.123,8.188,0,11.312l-5.656,5.656
				l-39.592-39.592c-3.126-3.122-3.129-8.188-0.006-11.314c0.002-0.002,0.004-0.004,0.006-0.006l31.6-31.6h115.376v-16
				L366.96,164.848z"/>
			<path d="M463.128,269.016l-16.968,16.976l-22.632-22.632l-11.312,11.312l45.256,45.256c3.126,3.122,3.129,8.188,0.006,11.314
				c-0.002,0.002-0.004,0.004-0.006,0.006l-56.616,56.568c-3.164,3.016-8.14,3.016-11.304,0l-11.312,11.312
				c9.372,9.369,24.564,9.369,33.936,0l56.576-56.568c9.373-9.372,9.375-24.568,0.003-33.941c-0.001-0.001-0.002-0.002-0.003-0.003
				l-11.312-11.312l14.624-14.632h13.592v-16h-16.872C466.662,266.672,464.628,267.516,463.128,269.016z"/>
			<path d="M396.616,348.216c0.035-12.764-9.993-23.289-22.744-23.872c-0.517-12.271-10.345-22.103-22.616-22.624
				c-0.447-12.264-10.348-22.07-22.616-22.4c-0.493-13.193-11.587-23.488-24.78-22.995c-6.059,0.226-11.806,2.747-16.076,7.051
				l-22.624,22.632c-9.369,9.372-9.369,24.564,0,33.936l11.312,11.312l22.624,22.632l22.624,22.632l11.312,11.312
				c9.372,9.373,24.568,9.375,33.941,0.003c0.001-0.001,0.002-0.002,0.003-0.003L389.6,365.2
				C394.116,360.705,396.643,354.588,396.616,348.216z M276.456,308.616c-3.123-3.124-3.123-8.188,0-11.312l22.624-22.632
				c3.126-3.124,8.192-3.122,11.316,0.004c3.124,3.126,3.122,8.192-0.004,11.316l-28.28,28.28L276.456,308.616z M293.424,325.6
				l28.28-28.296c3.164-3.025,8.148-3.025,11.312,0c3.118,3.123,3.118,8.181,0,11.304l-28.28,28.28L293.424,325.6z M327.36,359.528
				l-11.304-11.312l28.272-28.28c3.124-3.126,8.19-3.128,11.316-0.004c3.126,3.124,3.128,8.19,0.004,11.316L327.36,359.528z
				 M378.272,353.872l-22.624,22.632c-3.122,3.126-8.188,3.129-11.314,0.006c-0.002-0.002-0.004-0.004-0.006-0.006l-5.656-5.656
				l28.288-28.288c3.124-3.123,8.188-3.123,11.312,0C381.395,345.684,381.395,350.748,378.272,353.872z"/>
			<rect x="221.656" y="40" width="16" height="32"/>
			<rect x="281.666" y="51.027" transform="matrix(0.7071 0.7071 -0.7071 0.7071 132.9236 -184.9083)" width="16" height="33.944"/>
			<rect x="293.656" y="120" width="32" height="16"/>
			<rect x="40.97" y="51.312" transform="matrix(0.707 0.7072 -0.7072 0.707 58.6331 -22.9116)" width="32" height="16"/>
			<rect x="43.181" y="148.694" transform="matrix(-0.7071 -0.7071 0.7071 -0.7071 -29.0843 317.3402)" width="16" height="32"/>
			<rect x="5.656" y="104" width="32" height="16"/>
		</g>
	</g>
</g>
<g>
</g>
<g>
</g>
<g>
</g>
<g>
</g>
<g>
</g>
<g>
</g>
<g>
</g>
<g>
</g>
<g>
</g>
<g>
</g>
<g>
</g>
<g>
</g>
<g>
</g>
<g>
</g>
<g>
</g>
</svg>
