<svg id="icons" enable-background="new 0 0 64 64" height="512" viewBox="0 0 64 64" width="512" xmlns="http://www.w3.org/2000/svg"><path d="m63 20.489h-.081c-.488-3.386-3.401-5.999-6.92-5.999s-6.432 2.613-6.92 5.999h-3.178c1.293-1.27 2.099-3.037 2.099-4.989 0-3.859-3.141-7-7-7-2.321 0-4.017.621-5.514 1.17-1.219.446-2.271.832-3.486.832s-2.268-.386-3.486-.832c-1.497-.549-3.193-1.17-5.514-1.17-3.859 0-7 3.141-7 7 0 1.952.806 3.719 2.099 4.989h-3.179c-.488-3.385-3.401-5.999-6.92-5.999s-6.432 2.613-6.92 5.999h-.08c-.553 0-1 .447-1 1v10.01c0 13.234 10.767 24.001 24.001 24.001.012 0 .022-.007.034-.007h15.93c.012 0 .022.007.034.007 13.234 0 24.001-10.767 24.001-24.001v-10.01c0-.552-.447-1-1-1zm-7.001-3.999c2.414 0 4.434 1.721 4.898 3.999h-9.797c.465-2.278 2.485-3.999 4.899-3.999zm-9.999-.99c0 2.721-2.188 4.932-4.894 4.989h-13.33c2.438-1.697 4.58-3.912 4.949-4.302 2.085-2.198 6.173-5.687 8.275-5.687 2.757 0 5 2.243 5 5zm-28 0c0-2.757 2.243-5 5-5 1.966 0 3.42.532 4.825 1.048 1.281.469 2.605.954 4.175.954.713 0 1.37-.108 2-.261-1.412 1.208-2.476 2.308-2.726 2.571-2.049 2.161-6.031 5.563-8.162 5.677h-.219c-2.705-.057-4.893-2.268-4.893-4.989zm-10 .99c2.414 0 4.434 1.721 4.898 3.999h-9.796c.464-2.278 2.484-3.999 4.898-3.999zm32.146 37.006c-.006 0-.01-.003-.016-.003h-16.13c-.011 0-.02.006-.03.006-12.117-.017-21.97-9.879-21.97-22v-9.009c.002 0 .003-.001.005-.001h11.99c.002 0 .003.001.005.001s.003-.001.005-.001h8.783c.071.002.141.011.212.011h18c.071 0 .141-.009.212-.011h8.782c.002 0 .003.001.005.001s.003-.001.005-.001h11.99c.002 0 .003.001.005.001h.001v9.009c0 12.083-9.79 21.918-21.854 21.997z"/><path d="m58 25.495c-.553 0-1 .447-1 1v5.004c0 9.374-7.627 17.001-17.001 17.001-.553 0-1 .447-1 1s.447 1 1 1c10.478 0 19.001-8.523 19.001-19.001v-5.004c0-.553-.447-1-1-1z"/></svg>