<?xml version="1.0" encoding="iso-8859-1"?>
<!-- Generator: Adobe Illustrator 18.0.0, SVG Export Plug-In . SVG Version: 6.00 Build 0)  -->
<!DOCTYPE svg PUBLIC "-//W3C//DTD SVG 1.1//EN" "http://www.w3.org/Graphics/SVG/1.1/DTD/svg11.dtd">
<svg version="1.1" id="Capa_1" xmlns="http://www.w3.org/2000/svg" xmlns:xlink="http://www.w3.org/1999/xlink" x="0px" y="0px"
	 viewBox="0 0 442.094 442.094" style="enable-background:new 0 0 442.094 442.094;" xml:space="preserve">
<g>
	<path d="M310.509,123.426c-12.604-8.067-27.178-12.332-42.144-12.332h-15.278V98.363h14.897c2.112,0,4.128-0.891,5.549-2.454
		c1.422-1.563,2.117-3.653,1.917-5.757l-7.938-83.363C267.147,2.94,263.914,0,260.047,0h-78c-3.867,0-7.1,2.94-7.466,6.789
		l-7.938,83.363c-0.2,2.103,0.495,4.193,1.917,5.757c1.421,1.563,3.437,2.454,5.549,2.454h14.898v12.731h-15.278
		c-14.966,0-29.539,4.264-42.145,12.332c-22.565,14.441-36.037,39.059-36.037,65.85v245.318c0,4.142,3.357,7.5,7.5,7.5h236
		c4.143,0,7.5-3.358,7.5-7.5V189.276C346.547,162.484,333.074,137.868,310.509,123.426z M188.866,15h64.361l6.509,68.363h-77.38
		L188.866,15z M204.007,98.363h34.08v12.731h-34.08V98.363z M331.547,427.094h-221V189.276c0-21.651,10.887-41.545,29.123-53.216
		c10.187-6.52,21.964-9.965,34.059-9.965h94.637c12.095,0,23.871,3.446,34.058,9.965c18.236,11.671,29.124,31.565,29.124,53.216
		V427.094z"/>
	<path d="M286.586,193.094H155.507c-12.504,0-22.676,10.172-22.676,22.676v121.647c0,12.504,10.172,22.676,22.676,22.676h131.079
		c12.504,0,22.677-10.172,22.677-22.676V215.771C309.263,203.267,299.09,193.094,286.586,193.094z M294.263,337.418
		c0,4.233-3.443,7.676-7.677,7.676H155.507c-4.232,0-7.676-3.443-7.676-7.676V215.771c0-4.233,3.443-7.676,7.676-7.676h131.079
		c4.233,0,7.677,3.443,7.677,7.676V337.418z"/>
	<path d="M254.272,215.054c-14.301,0-26.785,9.669-30.361,23.514l-2.868,11.1l-2.868-11.099
		c-3.577-13.845-16.059-23.514-30.353-23.514c-8.388,0-16.265,3.265-22.168,9.181c-5.927,5.915-9.191,13.792-9.191,22.179
		c0,14.287,9.667,26.772,23.514,30.362l11.447,2.957c-0.573,2.206-0.878,4.519-0.878,6.901c0,3.459,0.648,6.768,1.819,9.819
		l-10.907,18.348c-1.624,2.732-1.35,6.192,0.686,8.634l10,12c1.483,1.78,3.617,2.699,5.766,2.699c1.692,0,3.396-0.57,4.798-1.738
		c3.182-2.652,3.611-7.381,0.96-10.563l-6.604-7.926l5.211-8.766c4.469,3.141,9.907,4.993,15.772,4.993h6
		c5.865,0,11.303-1.852,15.772-4.993l5.211,8.766l-6.604,7.926c-2.651,3.182-2.222,7.911,0.96,10.563
		c1.402,1.168,3.104,1.739,4.798,1.738c2.148,0,4.282-0.919,5.766-2.699l10-12c2.035-2.442,2.31-5.901,0.686-8.634l-10.907-18.348
		c1.171-3.052,1.819-6.36,1.819-9.819c0-2.383-0.306-4.696-0.878-6.902l11.456-2.958c13.842-3.588,23.509-16.073,23.509-30.36
		c0-8.389-3.265-16.266-9.188-22.174C270.521,218.316,262.646,215.054,254.272,215.054z M171.462,246.414
		c0-4.375,1.7-8.481,4.798-11.573c3.081-3.087,7.187-4.787,11.562-4.787c7.454,0,13.963,5.044,15.829,12.267l4.792,18.547
		c-3.326,1.244-6.349,3.111-8.925,5.464l-15.784-4.077C176.508,260.381,171.462,253.867,171.462,246.414z M224.045,299.134h-6
		c-6.893,0-12.5-5.607-12.5-12.5s5.607-12.5,12.5-12.5h6c6.893,0,12.5,5.607,12.5,12.5S230.938,299.134,224.045,299.134z
		 M258.366,262.252l-15.795,4.078c-2.577-2.353-5.602-4.222-8.93-5.465l4.792-18.545c1.865-7.222,8.378-12.266,15.838-12.266
		c4.368,0,8.476,1.702,11.573,4.799c3.087,3.08,4.787,7.186,4.787,11.561C270.632,253.867,265.585,260.381,258.366,262.252z"/>
	<path d="M227.97,46.316c-2.562-6.189-11.707-5.985-13.984,0.341c-1.102,3.061-0.026,6.615,2.592,8.547
		c2.583,1.907,6.157,1.942,8.783,0.106C228.188,53.334,229.313,49.503,227.97,46.316C227.78,45.856,228.159,46.766,227.97,46.316z"
		/>
	<path d="M221.047,21.682c-15.163,0-27.5,12.336-27.5,27.5s12.337,27.5,27.5,27.5s27.5-12.336,27.5-27.5
		S236.21,21.682,221.047,21.682z M221.047,61.682c-6.893,0-12.5-5.607-12.5-12.5s5.607-12.5,12.5-12.5s12.5,5.607,12.5,12.5
		S227.94,61.682,221.047,61.682z"/>
</g>
<g>
</g>
<g>
</g>
<g>
</g>
<g>
</g>
<g>
</g>
<g>
</g>
<g>
</g>
<g>
</g>
<g>
</g>
<g>
</g>
<g>
</g>
<g>
</g>
<g>
</g>
<g>
</g>
<g>
</g>
</svg>
